<mxfile host="app.diagrams.net" modified="2023-09-29T16:00:19.916Z" agent="Mozilla/5.0 (Windows NT 10.0; Win64; x64; rv:109.0) Gecko/20100101 Firefox/117.0" etag="ceTQ7y-B1ChyzvYOy159" version="21.8.2" type="github">
  <diagram id="R2lEEEUBdFMjLlhIrx00" name="Page-1">
    <mxGraphModel dx="954" dy="602" grid="1" gridSize="10" guides="1" tooltips="1" connect="1" arrows="1" fold="1" page="1" pageScale="1" pageWidth="850" pageHeight="1100" math="0" shadow="0" extFonts="Permanent Marker^https://fonts.googleapis.com/css?family=Permanent+Marker">
      <root>
        <mxCell id="0" />
        <mxCell id="1" parent="0" />
        <mxCell id="kHFKjKP2GJQcHjbetvcE-86" value="" style="rounded=1;whiteSpace=wrap;html=1;" vertex="1" parent="1">
          <mxGeometry x="600" y="550" width="180" height="140" as="geometry" />
        </mxCell>
        <mxCell id="kHFKjKP2GJQcHjbetvcE-1" value="" style="rounded=1;whiteSpace=wrap;html=1;" vertex="1" parent="1">
          <mxGeometry x="25" y="220" width="800" height="200" as="geometry" />
        </mxCell>
        <mxCell id="kHFKjKP2GJQcHjbetvcE-2" value="Customer" style="swimlane;childLayout=stackLayout;horizontal=1;startSize=50;horizontalStack=0;rounded=1;fontSize=14;fontStyle=0;strokeWidth=2;resizeParent=0;resizeLast=1;shadow=0;dashed=0;align=center;arcSize=4;whiteSpace=wrap;html=1;" vertex="1" parent="1">
          <mxGeometry x="610" y="10" width="160" height="100" as="geometry" />
        </mxCell>
        <mxCell id="kHFKjKP2GJQcHjbetvcE-3" value="&lt;div&gt;&lt;u&gt;name&lt;/u&gt;&lt;/div&gt;&lt;div&gt;address&lt;/div&gt;&lt;div&gt;category&lt;br&gt;&lt;/div&gt;" style="align=left;strokeColor=none;fillColor=none;spacingLeft=4;fontSize=12;verticalAlign=top;resizable=0;rotatable=0;part=1;html=1;" vertex="1" parent="kHFKjKP2GJQcHjbetvcE-2">
          <mxGeometry y="50" width="160" height="50" as="geometry" />
        </mxCell>
        <mxCell id="kHFKjKP2GJQcHjbetvcE-4" style="edgeStyle=orthogonalEdgeStyle;rounded=0;orthogonalLoop=1;jettySize=auto;html=1;exitX=0.5;exitY=1;exitDx=0;exitDy=0;" edge="1" parent="kHFKjKP2GJQcHjbetvcE-2" source="kHFKjKP2GJQcHjbetvcE-3" target="kHFKjKP2GJQcHjbetvcE-3">
          <mxGeometry relative="1" as="geometry" />
        </mxCell>
        <mxCell id="kHFKjKP2GJQcHjbetvcE-5" value="Order" style="shape=rhombus;perimeter=rhombusPerimeter;whiteSpace=wrap;html=1;align=center;" vertex="1" parent="1">
          <mxGeometry x="630" y="140" width="120" height="60" as="geometry" />
        </mxCell>
        <mxCell id="kHFKjKP2GJQcHjbetvcE-6" value="Assembly" style="swimlane;childLayout=stackLayout;horizontal=1;startSize=50;horizontalStack=0;rounded=1;fontSize=14;fontStyle=0;strokeWidth=2;resizeParent=0;resizeLast=1;shadow=0;dashed=0;align=center;arcSize=4;whiteSpace=wrap;html=1;" vertex="1" parent="1">
          <mxGeometry x="610" y="250" width="160" height="120" as="geometry" />
        </mxCell>
        <mxCell id="kHFKjKP2GJQcHjbetvcE-7" value="&lt;div&gt;&lt;u&gt;assembly_id&lt;/u&gt;&lt;/div&gt;&lt;div&gt;date_ordered&lt;/div&gt;&lt;div&gt;assembly_details&lt;br&gt;&lt;/div&gt;" style="align=left;strokeColor=none;fillColor=none;spacingLeft=4;fontSize=12;verticalAlign=top;resizable=0;rotatable=0;part=1;html=1;" vertex="1" parent="kHFKjKP2GJQcHjbetvcE-6">
          <mxGeometry y="50" width="160" height="70" as="geometry" />
        </mxCell>
        <mxCell id="kHFKjKP2GJQcHjbetvcE-8" value="Processes" style="swimlane;childLayout=stackLayout;horizontal=1;startSize=50;horizontalStack=0;rounded=1;fontSize=14;fontStyle=0;strokeWidth=2;resizeParent=0;resizeLast=1;shadow=0;dashed=0;align=center;arcSize=4;whiteSpace=wrap;html=1;" vertex="1" parent="1">
          <mxGeometry x="320" y="250" width="160" height="80" as="geometry" />
        </mxCell>
        <mxCell id="kHFKjKP2GJQcHjbetvcE-9" value="&lt;u&gt;process_id&lt;/u&gt;" style="align=left;strokeColor=none;fillColor=none;spacingLeft=4;fontSize=12;verticalAlign=top;resizable=0;rotatable=0;part=1;html=1;" vertex="1" parent="kHFKjKP2GJQcHjbetvcE-8">
          <mxGeometry y="50" width="160" height="30" as="geometry" />
        </mxCell>
        <mxCell id="kHFKjKP2GJQcHjbetvcE-10" value="Manufacture" style="shape=rhombus;perimeter=rhombusPerimeter;whiteSpace=wrap;html=1;align=center;" vertex="1" parent="1">
          <mxGeometry x="500" y="270" width="80" height="60" as="geometry" />
        </mxCell>
        <mxCell id="kHFKjKP2GJQcHjbetvcE-11" value="Supervise" style="shape=rhombus;perimeter=rhombusPerimeter;whiteSpace=wrap;html=1;align=center;" vertex="1" parent="1">
          <mxGeometry x="230" y="270" width="80" height="60" as="geometry" />
        </mxCell>
        <mxCell id="kHFKjKP2GJQcHjbetvcE-16" value="Department" style="swimlane;childLayout=stackLayout;horizontal=1;startSize=50;horizontalStack=0;rounded=1;fontSize=14;fontStyle=0;strokeWidth=2;resizeParent=0;resizeLast=1;shadow=0;dashed=0;align=center;arcSize=4;whiteSpace=wrap;html=1;" vertex="1" parent="1">
          <mxGeometry x="50" y="250" width="160" height="120" as="geometry" />
        </mxCell>
        <mxCell id="kHFKjKP2GJQcHjbetvcE-17" value="&lt;div&gt;&lt;u&gt;dept_num&lt;/u&gt;&lt;/div&gt;&lt;div&gt;dept_data&lt;br&gt;&lt;/div&gt;" style="align=left;strokeColor=none;fillColor=none;spacingLeft=4;fontSize=12;verticalAlign=top;resizable=0;rotatable=0;part=1;html=1;" vertex="1" parent="kHFKjKP2GJQcHjbetvcE-16">
          <mxGeometry y="50" width="160" height="70" as="geometry" />
        </mxCell>
        <mxCell id="kHFKjKP2GJQcHjbetvcE-20" value="Fit" style="swimlane;childLayout=stackLayout;horizontal=1;startSize=20;horizontalStack=0;rounded=1;fontSize=14;fontStyle=0;strokeWidth=2;resizeParent=0;resizeLast=1;shadow=0;dashed=0;align=center;arcSize=4;whiteSpace=wrap;html=1;" vertex="1" parent="1">
          <mxGeometry x="245" y="350" width="90" height="60" as="geometry">
            <mxRectangle x="210" y="10" width="60" height="50" as="alternateBounds" />
          </mxGeometry>
        </mxCell>
        <mxCell id="kHFKjKP2GJQcHjbetvcE-21" value="fit_type" style="align=left;strokeColor=none;fillColor=none;spacingLeft=4;fontSize=12;verticalAlign=top;resizable=0;rotatable=0;part=1;html=1;" vertex="1" parent="kHFKjKP2GJQcHjbetvcE-20">
          <mxGeometry y="20" width="90" height="40" as="geometry" />
        </mxCell>
        <mxCell id="kHFKjKP2GJQcHjbetvcE-23" value="Paint" style="swimlane;childLayout=stackLayout;horizontal=1;startSize=20;horizontalStack=0;rounded=1;fontSize=14;fontStyle=0;strokeWidth=2;resizeParent=0;resizeLast=1;shadow=0;dashed=0;align=center;arcSize=4;whiteSpace=wrap;html=1;" vertex="1" parent="1">
          <mxGeometry x="355" y="350" width="105" height="60" as="geometry">
            <mxRectangle x="210" y="10" width="60" height="50" as="alternateBounds" />
          </mxGeometry>
        </mxCell>
        <mxCell id="kHFKjKP2GJQcHjbetvcE-24" value="&lt;div&gt;paint_type&lt;/div&gt;&lt;div&gt;painting_method&lt;/div&gt;&lt;div&gt;&lt;br&gt;&lt;/div&gt;" style="align=left;strokeColor=none;fillColor=none;spacingLeft=4;fontSize=12;verticalAlign=top;resizable=0;rotatable=0;part=1;html=1;" vertex="1" parent="kHFKjKP2GJQcHjbetvcE-23">
          <mxGeometry y="20" width="105" height="40" as="geometry" />
        </mxCell>
        <mxCell id="kHFKjKP2GJQcHjbetvcE-25" value="Cut" style="swimlane;childLayout=stackLayout;horizontal=1;startSize=20;horizontalStack=0;rounded=1;fontSize=14;fontStyle=0;strokeWidth=2;resizeParent=0;resizeLast=1;shadow=0;dashed=0;align=center;arcSize=4;whiteSpace=wrap;html=1;" vertex="1" parent="1">
          <mxGeometry x="470" y="350" width="110" height="60" as="geometry">
            <mxRectangle x="210" y="10" width="60" height="50" as="alternateBounds" />
          </mxGeometry>
        </mxCell>
        <mxCell id="kHFKjKP2GJQcHjbetvcE-26" value="&lt;div&gt;cut_type&lt;/div&gt;&lt;div&gt;machine_type&lt;br&gt;&lt;/div&gt;" style="align=left;strokeColor=none;fillColor=none;spacingLeft=4;fontSize=12;verticalAlign=top;resizable=0;rotatable=0;part=1;html=1;" vertex="1" parent="kHFKjKP2GJQcHjbetvcE-25">
          <mxGeometry y="20" width="110" height="40" as="geometry" />
        </mxCell>
        <mxCell id="kHFKjKP2GJQcHjbetvcE-29" value="" style="edgeStyle=elbowEdgeStyle;elbow=vertical;endArrow=classic;html=1;curved=0;rounded=0;endSize=8;startSize=8;exitX=0.5;exitY=0;exitDx=0;exitDy=0;entryX=0.5;entryY=1;entryDx=0;entryDy=0;" edge="1" parent="1" source="kHFKjKP2GJQcHjbetvcE-20" target="kHFKjKP2GJQcHjbetvcE-9">
          <mxGeometry width="50" height="50" relative="1" as="geometry">
            <mxPoint x="400" y="180" as="sourcePoint" />
            <mxPoint x="450" y="130" as="targetPoint" />
          </mxGeometry>
        </mxCell>
        <mxCell id="kHFKjKP2GJQcHjbetvcE-32" value="total" style="edgeLabel;html=1;align=center;verticalAlign=middle;resizable=0;points=[];" vertex="1" connectable="0" parent="kHFKjKP2GJQcHjbetvcE-29">
          <mxGeometry x="0.3231" y="1" relative="1" as="geometry">
            <mxPoint as="offset" />
          </mxGeometry>
        </mxCell>
        <mxCell id="kHFKjKP2GJQcHjbetvcE-30" value="" style="edgeStyle=elbowEdgeStyle;elbow=vertical;endArrow=classic;html=1;curved=0;rounded=0;endSize=8;startSize=8;exitX=0.5;exitY=0;exitDx=0;exitDy=0;entryX=0.5;entryY=1;entryDx=0;entryDy=0;" edge="1" parent="1" source="kHFKjKP2GJQcHjbetvcE-25" target="kHFKjKP2GJQcHjbetvcE-8">
          <mxGeometry width="50" height="50" relative="1" as="geometry">
            <mxPoint x="400" y="180" as="sourcePoint" />
            <mxPoint x="450" y="130" as="targetPoint" />
          </mxGeometry>
        </mxCell>
        <mxCell id="kHFKjKP2GJQcHjbetvcE-31" value="" style="endArrow=classic;html=1;rounded=0;exitX=0.448;exitY=0.017;exitDx=0;exitDy=0;exitPerimeter=0;" edge="1" parent="1" source="kHFKjKP2GJQcHjbetvcE-23">
          <mxGeometry width="50" height="50" relative="1" as="geometry">
            <mxPoint x="400" y="180" as="sourcePoint" />
            <mxPoint x="402" y="330" as="targetPoint" />
          </mxGeometry>
        </mxCell>
        <mxCell id="kHFKjKP2GJQcHjbetvcE-33" value="" style="shape=link;html=1;rounded=0;exitX=1;exitY=0.5;exitDx=0;exitDy=0;entryX=0;entryY=0;entryDx=0;entryDy=0;" edge="1" parent="1" source="kHFKjKP2GJQcHjbetvcE-11" target="kHFKjKP2GJQcHjbetvcE-9">
          <mxGeometry relative="1" as="geometry">
            <mxPoint x="340" y="160" as="sourcePoint" />
            <mxPoint x="500" y="160" as="targetPoint" />
          </mxGeometry>
        </mxCell>
        <mxCell id="kHFKjKP2GJQcHjbetvcE-34" value="1" style="resizable=0;html=1;whiteSpace=wrap;align=right;verticalAlign=bottom;" connectable="0" vertex="1" parent="kHFKjKP2GJQcHjbetvcE-33">
          <mxGeometry x="1" relative="1" as="geometry" />
        </mxCell>
        <mxCell id="kHFKjKP2GJQcHjbetvcE-35" value="" style="shape=link;html=1;rounded=0;exitX=1;exitY=0;exitDx=0;exitDy=0;entryX=0;entryY=0.5;entryDx=0;entryDy=0;" edge="1" parent="1" source="kHFKjKP2GJQcHjbetvcE-9" target="kHFKjKP2GJQcHjbetvcE-10">
          <mxGeometry relative="1" as="geometry">
            <mxPoint x="340" y="160" as="sourcePoint" />
            <mxPoint x="500" y="160" as="targetPoint" />
          </mxGeometry>
        </mxCell>
        <mxCell id="kHFKjKP2GJQcHjbetvcE-36" value="" style="resizable=0;html=1;whiteSpace=wrap;align=right;verticalAlign=bottom;" connectable="0" vertex="1" parent="kHFKjKP2GJQcHjbetvcE-35">
          <mxGeometry x="1" relative="1" as="geometry" />
        </mxCell>
        <mxCell id="kHFKjKP2GJQcHjbetvcE-37" value="" style="shape=link;html=1;rounded=0;exitX=1;exitY=0;exitDx=0;exitDy=0;" edge="1" parent="1" source="kHFKjKP2GJQcHjbetvcE-17" target="kHFKjKP2GJQcHjbetvcE-11">
          <mxGeometry relative="1" as="geometry">
            <mxPoint x="340" y="160" as="sourcePoint" />
            <mxPoint x="500" y="160" as="targetPoint" />
          </mxGeometry>
        </mxCell>
        <mxCell id="kHFKjKP2GJQcHjbetvcE-38" value="m" style="resizable=0;html=1;whiteSpace=wrap;align=right;verticalAlign=bottom;" connectable="0" vertex="1" parent="kHFKjKP2GJQcHjbetvcE-37">
          <mxGeometry x="1" relative="1" as="geometry" />
        </mxCell>
        <mxCell id="kHFKjKP2GJQcHjbetvcE-39" value="" style="shape=link;html=1;rounded=0;exitX=1;exitY=0.5;exitDx=0;exitDy=0;width=6;entryX=0;entryY=0.4;entryDx=0;entryDy=0;entryPerimeter=0;" edge="1" parent="1" source="kHFKjKP2GJQcHjbetvcE-10" target="kHFKjKP2GJQcHjbetvcE-6">
          <mxGeometry relative="1" as="geometry">
            <mxPoint x="220" y="310" as="sourcePoint" />
            <mxPoint x="240" y="310" as="targetPoint" />
          </mxGeometry>
        </mxCell>
        <mxCell id="kHFKjKP2GJQcHjbetvcE-41" value="" style="shape=link;html=1;rounded=0;exitX=0.5;exitY=1;exitDx=0;exitDy=0;" edge="1" parent="1" source="kHFKjKP2GJQcHjbetvcE-3" target="kHFKjKP2GJQcHjbetvcE-5">
          <mxGeometry relative="1" as="geometry">
            <mxPoint x="340" y="250" as="sourcePoint" />
            <mxPoint x="500" y="250" as="targetPoint" />
          </mxGeometry>
        </mxCell>
        <mxCell id="kHFKjKP2GJQcHjbetvcE-42" value="N" style="resizable=0;html=1;whiteSpace=wrap;align=right;verticalAlign=bottom;" connectable="0" vertex="1" parent="kHFKjKP2GJQcHjbetvcE-41">
          <mxGeometry x="1" relative="1" as="geometry" />
        </mxCell>
        <mxCell id="kHFKjKP2GJQcHjbetvcE-43" value="" style="shape=link;html=1;rounded=0;entryX=0.5;entryY=1;entryDx=0;entryDy=0;exitX=0.5;exitY=0;exitDx=0;exitDy=0;" edge="1" parent="1" source="kHFKjKP2GJQcHjbetvcE-6" target="kHFKjKP2GJQcHjbetvcE-5">
          <mxGeometry relative="1" as="geometry">
            <mxPoint x="340" y="250" as="sourcePoint" />
            <mxPoint x="500" y="250" as="targetPoint" />
          </mxGeometry>
        </mxCell>
        <mxCell id="kHFKjKP2GJQcHjbetvcE-44" value="1" style="resizable=0;html=1;whiteSpace=wrap;align=right;verticalAlign=bottom;" connectable="0" vertex="1" parent="kHFKjKP2GJQcHjbetvcE-43">
          <mxGeometry x="1" relative="1" as="geometry" />
        </mxCell>
        <mxCell id="kHFKjKP2GJQcHjbetvcE-45" value="Account" style="swimlane;childLayout=stackLayout;horizontal=1;startSize=50;horizontalStack=0;rounded=1;fontSize=14;fontStyle=0;strokeWidth=2;resizeParent=0;resizeLast=1;shadow=0;dashed=0;align=center;arcSize=4;whiteSpace=wrap;html=1;" vertex="1" parent="1">
          <mxGeometry x="50" y="560" width="160" height="120" as="geometry" />
        </mxCell>
        <mxCell id="kHFKjKP2GJQcHjbetvcE-46" value="&lt;div&gt;&lt;u&gt;acct_num&lt;/u&gt;&lt;/div&gt;&lt;div&gt;type&lt;/div&gt;&lt;div&gt;date_established&lt;/div&gt;&lt;div&gt;costs&lt;br&gt;&lt;/div&gt;" style="align=left;strokeColor=none;fillColor=none;spacingLeft=4;fontSize=12;verticalAlign=top;resizable=0;rotatable=0;part=1;html=1;" vertex="1" parent="kHFKjKP2GJQcHjbetvcE-45">
          <mxGeometry y="50" width="160" height="70" as="geometry" />
        </mxCell>
        <mxCell id="kHFKjKP2GJQcHjbetvcE-51" value="Job" style="swimlane;childLayout=stackLayout;horizontal=1;startSize=50;horizontalStack=0;rounded=1;fontSize=14;fontStyle=0;strokeWidth=2;resizeParent=0;resizeLast=1;shadow=0;dashed=0;align=center;arcSize=4;whiteSpace=wrap;html=1;" vertex="1" parent="1">
          <mxGeometry x="610" y="560" width="160" height="120" as="geometry" />
        </mxCell>
        <mxCell id="kHFKjKP2GJQcHjbetvcE-52" value="&lt;div&gt;&lt;u&gt;job_num&lt;/u&gt;&lt;/div&gt;&lt;div&gt;date_commenced&lt;/div&gt;&lt;div&gt;date_completed&lt;br&gt;&lt;/div&gt;" style="align=left;strokeColor=none;fillColor=none;spacingLeft=4;fontSize=12;verticalAlign=top;resizable=0;rotatable=0;part=1;html=1;" vertex="1" parent="kHFKjKP2GJQcHjbetvcE-51">
          <mxGeometry y="50" width="160" height="70" as="geometry" />
        </mxCell>
        <mxCell id="kHFKjKP2GJQcHjbetvcE-53" value="Assign" style="shape=rhombus;perimeter=rhombusPerimeter;whiteSpace=wrap;html=1;align=center;" vertex="1" parent="1">
          <mxGeometry x="630" y="450" width="120" height="60" as="geometry" />
        </mxCell>
        <mxCell id="kHFKjKP2GJQcHjbetvcE-54" value="" style="shape=link;html=1;rounded=0;entryX=0.5;entryY=0;entryDx=0;entryDy=0;exitX=0.5;exitY=1;exitDx=0;exitDy=0;" edge="1" parent="1" source="kHFKjKP2GJQcHjbetvcE-7" target="kHFKjKP2GJQcHjbetvcE-53">
          <mxGeometry relative="1" as="geometry">
            <mxPoint x="340" y="460" as="sourcePoint" />
            <mxPoint x="500" y="460" as="targetPoint" />
          </mxGeometry>
        </mxCell>
        <mxCell id="kHFKjKP2GJQcHjbetvcE-55" value="1" style="resizable=0;html=1;whiteSpace=wrap;align=right;verticalAlign=bottom;" connectable="0" vertex="1" parent="kHFKjKP2GJQcHjbetvcE-54">
          <mxGeometry x="1" relative="1" as="geometry" />
        </mxCell>
        <mxCell id="kHFKjKP2GJQcHjbetvcE-56" value="" style="endArrow=none;html=1;rounded=0;dashed=1;dashPattern=1 2;exitX=1;exitY=0;exitDx=0;exitDy=0;entryX=0;entryY=0.5;entryDx=0;entryDy=0;" edge="1" parent="1" source="kHFKjKP2GJQcHjbetvcE-9" target="kHFKjKP2GJQcHjbetvcE-53">
          <mxGeometry relative="1" as="geometry">
            <mxPoint x="340" y="460" as="sourcePoint" />
            <mxPoint x="500" y="460" as="targetPoint" />
          </mxGeometry>
        </mxCell>
        <mxCell id="kHFKjKP2GJQcHjbetvcE-57" value="" style="resizable=0;html=1;whiteSpace=wrap;align=right;verticalAlign=bottom;" connectable="0" vertex="1" parent="kHFKjKP2GJQcHjbetvcE-56">
          <mxGeometry x="1" relative="1" as="geometry" />
        </mxCell>
        <mxCell id="kHFKjKP2GJQcHjbetvcE-58" value="" style="shape=link;html=1;rounded=0;entryX=0.544;entryY=0;entryDx=0;entryDy=0;entryPerimeter=0;exitX=0.5;exitY=1;exitDx=0;exitDy=0;" edge="1" parent="1" source="kHFKjKP2GJQcHjbetvcE-53" target="kHFKjKP2GJQcHjbetvcE-51">
          <mxGeometry relative="1" as="geometry">
            <mxPoint x="340" y="460" as="sourcePoint" />
            <mxPoint x="500" y="460" as="targetPoint" />
          </mxGeometry>
        </mxCell>
        <mxCell id="kHFKjKP2GJQcHjbetvcE-59" value="1" style="resizable=0;html=1;whiteSpace=wrap;align=right;verticalAlign=bottom;" connectable="0" vertex="1" parent="kHFKjKP2GJQcHjbetvcE-58">
          <mxGeometry x="1" relative="1" as="geometry" />
        </mxCell>
        <mxCell id="kHFKjKP2GJQcHjbetvcE-60" value="Maintain" style="shape=rhombus;perimeter=rhombusPerimeter;whiteSpace=wrap;html=1;align=center;" vertex="1" parent="1">
          <mxGeometry x="60" y="450" width="120" height="60" as="geometry" />
        </mxCell>
        <mxCell id="kHFKjKP2GJQcHjbetvcE-61" value="" style="shape=link;html=1;rounded=0;exitX=0.13;exitY=1.015;exitDx=0;exitDy=0;exitPerimeter=0;entryX=0.5;entryY=0;entryDx=0;entryDy=0;" edge="1" parent="1" source="kHFKjKP2GJQcHjbetvcE-1" target="kHFKjKP2GJQcHjbetvcE-60">
          <mxGeometry relative="1" as="geometry">
            <mxPoint x="340" y="580" as="sourcePoint" />
            <mxPoint x="500" y="580" as="targetPoint" />
          </mxGeometry>
        </mxCell>
        <mxCell id="kHFKjKP2GJQcHjbetvcE-62" value="1" style="resizable=0;html=1;whiteSpace=wrap;align=right;verticalAlign=bottom;" connectable="0" vertex="1" parent="kHFKjKP2GJQcHjbetvcE-61">
          <mxGeometry x="1" relative="1" as="geometry" />
        </mxCell>
        <mxCell id="kHFKjKP2GJQcHjbetvcE-63" value="" style="shape=link;html=1;rounded=0;exitX=0.5;exitY=1;exitDx=0;exitDy=0;entryX=0.444;entryY=0.008;entryDx=0;entryDy=0;entryPerimeter=0;" edge="1" parent="1" source="kHFKjKP2GJQcHjbetvcE-60" target="kHFKjKP2GJQcHjbetvcE-45">
          <mxGeometry relative="1" as="geometry">
            <mxPoint x="340" y="580" as="sourcePoint" />
            <mxPoint x="500" y="580" as="targetPoint" />
          </mxGeometry>
        </mxCell>
        <mxCell id="kHFKjKP2GJQcHjbetvcE-64" value="3" style="resizable=0;html=1;whiteSpace=wrap;align=right;verticalAlign=bottom;" connectable="0" vertex="1" parent="kHFKjKP2GJQcHjbetvcE-63">
          <mxGeometry x="1" relative="1" as="geometry" />
        </mxCell>
        <mxCell id="kHFKjKP2GJQcHjbetvcE-65" value="Fit_Job" style="swimlane;childLayout=stackLayout;horizontal=1;startSize=20;horizontalStack=0;rounded=1;fontSize=14;fontStyle=0;strokeWidth=2;resizeParent=0;resizeLast=1;shadow=0;dashed=0;align=center;arcSize=4;whiteSpace=wrap;html=1;" vertex="1" parent="1">
          <mxGeometry x="510" y="711" width="90" height="60" as="geometry">
            <mxRectangle x="210" y="10" width="60" height="50" as="alternateBounds" />
          </mxGeometry>
        </mxCell>
        <mxCell id="kHFKjKP2GJQcHjbetvcE-66" value="labor" style="align=left;strokeColor=none;fillColor=none;spacingLeft=4;fontSize=12;verticalAlign=top;resizable=0;rotatable=0;part=1;html=1;" vertex="1" parent="kHFKjKP2GJQcHjbetvcE-65">
          <mxGeometry y="20" width="90" height="40" as="geometry" />
        </mxCell>
        <mxCell id="kHFKjKP2GJQcHjbetvcE-67" value="Paint_Job" style="swimlane;childLayout=stackLayout;horizontal=1;startSize=20;horizontalStack=0;rounded=1;fontSize=14;fontStyle=0;strokeWidth=2;resizeParent=0;resizeLast=1;shadow=0;dashed=0;align=center;arcSize=4;whiteSpace=wrap;html=1;" vertex="1" parent="1">
          <mxGeometry x="620" y="711" width="105" height="89" as="geometry">
            <mxRectangle x="210" y="10" width="60" height="50" as="alternateBounds" />
          </mxGeometry>
        </mxCell>
        <mxCell id="kHFKjKP2GJQcHjbetvcE-68" value="&lt;div&gt;color&lt;/div&gt;&lt;div&gt;volume&lt;/div&gt;&lt;div&gt;labor&lt;br&gt;&lt;/div&gt;" style="align=left;strokeColor=none;fillColor=none;spacingLeft=4;fontSize=12;verticalAlign=top;resizable=0;rotatable=0;part=1;html=1;" vertex="1" parent="kHFKjKP2GJQcHjbetvcE-67">
          <mxGeometry y="20" width="105" height="69" as="geometry" />
        </mxCell>
        <mxCell id="kHFKjKP2GJQcHjbetvcE-69" value="Cut_Job" style="swimlane;childLayout=stackLayout;horizontal=1;startSize=20;horizontalStack=0;rounded=1;fontSize=14;fontStyle=0;strokeWidth=2;resizeParent=0;resizeLast=1;shadow=0;dashed=0;align=center;arcSize=4;whiteSpace=wrap;html=1;" vertex="1" parent="1">
          <mxGeometry x="740" y="711" width="110" height="90" as="geometry">
            <mxRectangle x="740" y="730" width="60" height="50" as="alternateBounds" />
          </mxGeometry>
        </mxCell>
        <mxCell id="kHFKjKP2GJQcHjbetvcE-70" value="&lt;div&gt;machine_used&lt;/div&gt;&lt;div&gt;time&lt;/div&gt;&lt;div&gt;Material&lt;/div&gt;&lt;div&gt;labor&lt;br&gt;&lt;/div&gt;" style="align=left;strokeColor=none;fillColor=none;spacingLeft=4;fontSize=12;verticalAlign=top;resizable=0;rotatable=0;part=1;html=1;" vertex="1" parent="kHFKjKP2GJQcHjbetvcE-69">
          <mxGeometry y="20" width="110" height="70" as="geometry" />
        </mxCell>
        <mxCell id="kHFKjKP2GJQcHjbetvcE-71" value="total" style="edgeLabel;html=1;align=center;verticalAlign=middle;resizable=0;points=[];" vertex="1" connectable="0" parent="1">
          <mxGeometry x="631" y="700" as="geometry" />
        </mxCell>
        <mxCell id="kHFKjKP2GJQcHjbetvcE-72" value="Cost" style="shape=rhombus;perimeter=rhombusPerimeter;whiteSpace=wrap;html=1;align=center;" vertex="1" parent="1">
          <mxGeometry x="347.5" y="550" width="120" height="60" as="geometry" />
        </mxCell>
        <mxCell id="kHFKjKP2GJQcHjbetvcE-73" value="" style="shape=link;html=1;rounded=0;exitX=0.476;exitY=1.005;exitDx=0;exitDy=0;exitPerimeter=0;" edge="1" parent="1" source="kHFKjKP2GJQcHjbetvcE-1" target="kHFKjKP2GJQcHjbetvcE-72">
          <mxGeometry relative="1" as="geometry">
            <mxPoint x="340" y="580" as="sourcePoint" />
            <mxPoint x="500" y="580" as="targetPoint" />
          </mxGeometry>
        </mxCell>
        <mxCell id="kHFKjKP2GJQcHjbetvcE-74" value="1" style="resizable=0;html=1;whiteSpace=wrap;align=right;verticalAlign=bottom;" connectable="0" vertex="1" parent="kHFKjKP2GJQcHjbetvcE-73">
          <mxGeometry x="1" relative="1" as="geometry" />
        </mxCell>
        <mxCell id="kHFKjKP2GJQcHjbetvcE-75" value="" style="shape=link;html=1;rounded=0;entryX=0;entryY=0.25;entryDx=0;entryDy=0;exitX=0.954;exitY=0.533;exitDx=0;exitDy=0;exitPerimeter=0;" edge="1" parent="1" source="kHFKjKP2GJQcHjbetvcE-72" target="kHFKjKP2GJQcHjbetvcE-51">
          <mxGeometry relative="1" as="geometry">
            <mxPoint x="340" y="580" as="sourcePoint" />
            <mxPoint x="500" y="580" as="targetPoint" />
          </mxGeometry>
        </mxCell>
        <mxCell id="kHFKjKP2GJQcHjbetvcE-76" value="1" style="resizable=0;html=1;whiteSpace=wrap;align=right;verticalAlign=bottom;" connectable="0" vertex="1" parent="kHFKjKP2GJQcHjbetvcE-75">
          <mxGeometry x="1" relative="1" as="geometry" />
        </mxCell>
        <mxCell id="kHFKjKP2GJQcHjbetvcE-77" value="" style="shape=link;html=1;rounded=0;exitX=1;exitY=0.25;exitDx=0;exitDy=0;entryX=0;entryY=0.5;entryDx=0;entryDy=0;" edge="1" parent="1" source="kHFKjKP2GJQcHjbetvcE-45" target="kHFKjKP2GJQcHjbetvcE-72">
          <mxGeometry relative="1" as="geometry">
            <mxPoint x="340" y="580" as="sourcePoint" />
            <mxPoint x="500" y="580" as="targetPoint" />
          </mxGeometry>
        </mxCell>
        <mxCell id="kHFKjKP2GJQcHjbetvcE-78" value="3" style="resizable=0;html=1;whiteSpace=wrap;align=right;verticalAlign=bottom;" connectable="0" vertex="1" parent="kHFKjKP2GJQcHjbetvcE-77">
          <mxGeometry x="1" relative="1" as="geometry" />
        </mxCell>
        <mxCell id="kHFKjKP2GJQcHjbetvcE-79" value="Transaction" style="swimlane;childLayout=stackLayout;horizontal=1;startSize=50;horizontalStack=0;rounded=1;fontSize=14;fontStyle=0;strokeWidth=2;resizeParent=0;resizeLast=1;shadow=0;dashed=0;align=center;arcSize=4;whiteSpace=wrap;html=1;" vertex="1" parent="1">
          <mxGeometry x="280" y="651" width="160" height="120" as="geometry" />
        </mxCell>
        <mxCell id="kHFKjKP2GJQcHjbetvcE-80" value="&lt;div&gt;&lt;u&gt;tran_num&lt;/u&gt;&lt;/div&gt;&lt;div&gt;sup_cost&lt;br&gt;&lt;/div&gt;" style="align=left;strokeColor=none;fillColor=none;spacingLeft=4;fontSize=12;verticalAlign=top;resizable=0;rotatable=0;part=1;html=1;" vertex="1" parent="kHFKjKP2GJQcHjbetvcE-79">
          <mxGeometry y="50" width="160" height="70" as="geometry" />
        </mxCell>
        <mxCell id="kHFKjKP2GJQcHjbetvcE-81" value="" style="shape=link;html=1;rounded=0;exitX=0.5;exitY=1;exitDx=0;exitDy=0;entryX=0.563;entryY=-0.008;entryDx=0;entryDy=0;entryPerimeter=0;" edge="1" parent="1" source="kHFKjKP2GJQcHjbetvcE-72" target="kHFKjKP2GJQcHjbetvcE-79">
          <mxGeometry relative="1" as="geometry">
            <mxPoint x="340" y="580" as="sourcePoint" />
            <mxPoint x="500" y="580" as="targetPoint" />
          </mxGeometry>
        </mxCell>
        <mxCell id="kHFKjKP2GJQcHjbetvcE-82" value="1" style="resizable=0;html=1;whiteSpace=wrap;align=right;verticalAlign=bottom;" connectable="0" vertex="1" parent="kHFKjKP2GJQcHjbetvcE-81">
          <mxGeometry x="1" relative="1" as="geometry" />
        </mxCell>
        <mxCell id="kHFKjKP2GJQcHjbetvcE-83" value="" style="edgeStyle=elbowEdgeStyle;elbow=vertical;endArrow=classic;html=1;curved=0;rounded=0;endSize=8;startSize=8;exitX=0.5;exitY=0;exitDx=0;exitDy=0;entryX=0.5;entryY=1;entryDx=0;entryDy=0;" edge="1" parent="1" source="kHFKjKP2GJQcHjbetvcE-65" target="kHFKjKP2GJQcHjbetvcE-52">
          <mxGeometry width="50" height="50" relative="1" as="geometry">
            <mxPoint x="400" y="570" as="sourcePoint" />
            <mxPoint x="450" y="520" as="targetPoint" />
          </mxGeometry>
        </mxCell>
        <mxCell id="kHFKjKP2GJQcHjbetvcE-84" value="" style="edgeStyle=elbowEdgeStyle;elbow=vertical;endArrow=classic;html=1;curved=0;rounded=0;endSize=8;startSize=8;exitX=0.5;exitY=0;exitDx=0;exitDy=0;entryX=0.5;entryY=1;entryDx=0;entryDy=0;" edge="1" parent="1" source="kHFKjKP2GJQcHjbetvcE-69" target="kHFKjKP2GJQcHjbetvcE-52">
          <mxGeometry width="50" height="50" relative="1" as="geometry">
            <mxPoint x="400" y="570" as="sourcePoint" />
            <mxPoint x="450" y="520" as="targetPoint" />
          </mxGeometry>
        </mxCell>
        <mxCell id="kHFKjKP2GJQcHjbetvcE-85" value="" style="endArrow=classic;html=1;rounded=0;exitX=0.695;exitY=-0.056;exitDx=0;exitDy=0;exitPerimeter=0;entryX=0.5;entryY=1;entryDx=0;entryDy=0;" edge="1" parent="1" source="kHFKjKP2GJQcHjbetvcE-67" target="kHFKjKP2GJQcHjbetvcE-52">
          <mxGeometry width="50" height="50" relative="1" as="geometry">
            <mxPoint x="400" y="570" as="sourcePoint" />
            <mxPoint x="450" y="520" as="targetPoint" />
          </mxGeometry>
        </mxCell>
      </root>
    </mxGraphModel>
  </diagram>
</mxfile>
